<mxfile host="app.diagrams.net" modified="2022-05-30T06:25:12.384Z" agent="5.0 (Windows NT 10.0; Win64; x64) AppleWebKit/537.36 (KHTML, like Gecko) Chrome/102.0.5005.62 Safari/537.36" etag="7m8X6ngxgiS5RcDq6050" version="18.1.3" type="github">
  <diagram id="ssd9Ek4S8vyrCQEDqdm_" name="Page-1">
    <mxGraphModel dx="1038" dy="975" grid="0" gridSize="10" guides="1" tooltips="1" connect="1" arrows="1" fold="1" page="0" pageScale="1" pageWidth="827" pageHeight="1169" math="0" shadow="0">
      <root>
        <mxCell id="0" />
        <mxCell id="1" parent="0" />
        <mxCell id="1KLsVy8x2Pbju-mjb7nF-10" style="rounded=0;orthogonalLoop=1;jettySize=auto;html=1;exitX=0.5;exitY=1;exitDx=0;exitDy=0;fontSize=14;entryX=0.5;entryY=0;entryDx=0;entryDy=0;strokeWidth=4;" edge="1" parent="1" source="1KLsVy8x2Pbju-mjb7nF-1" target="1KLsVy8x2Pbju-mjb7nF-2">
          <mxGeometry relative="1" as="geometry">
            <mxPoint x="204" y="109" as="targetPoint" />
          </mxGeometry>
        </mxCell>
        <mxCell id="1KLsVy8x2Pbju-mjb7nF-1" value="&lt;b&gt;&lt;font style=&quot;font-size: 14px;&quot;&gt;一些有污染的企业搬离城市&lt;/font&gt;&lt;/b&gt;" style="rounded=0;whiteSpace=wrap;html=1;" vertex="1" parent="1">
          <mxGeometry x="136" y="-34" width="120" height="60" as="geometry" />
        </mxCell>
        <mxCell id="1KLsVy8x2Pbju-mjb7nF-2" value="&lt;span style=&quot;font-size: 14px;&quot;&gt;&lt;b&gt;逐渐减少污染&lt;/b&gt;&lt;/span&gt;" style="rounded=0;whiteSpace=wrap;html=1;" vertex="1" parent="1">
          <mxGeometry x="136" y="109" width="120" height="60" as="geometry" />
        </mxCell>
        <mxCell id="1KLsVy8x2Pbju-mjb7nF-11" style="edgeStyle=orthogonalEdgeStyle;rounded=0;orthogonalLoop=1;jettySize=auto;html=1;exitX=0.5;exitY=1;exitDx=0;exitDy=0;fontSize=14;strokeWidth=1;entryX=0.5;entryY=0;entryDx=0;entryDy=0;" edge="1" parent="1" source="1KLsVy8x2Pbju-mjb7nF-3" target="1KLsVy8x2Pbju-mjb7nF-5">
          <mxGeometry relative="1" as="geometry">
            <mxPoint x="375" y="85.20001220703125" as="targetPoint" />
          </mxGeometry>
        </mxCell>
        <mxCell id="1KLsVy8x2Pbju-mjb7nF-13" style="edgeStyle=orthogonalEdgeStyle;rounded=0;orthogonalLoop=1;jettySize=auto;html=1;exitX=0.5;exitY=1;exitDx=0;exitDy=0;entryX=0.5;entryY=0;entryDx=0;entryDy=0;fontSize=14;strokeWidth=1;" edge="1" parent="1" source="1KLsVy8x2Pbju-mjb7nF-3" target="1KLsVy8x2Pbju-mjb7nF-6">
          <mxGeometry relative="1" as="geometry" />
        </mxCell>
        <mxCell id="1KLsVy8x2Pbju-mjb7nF-3" value="&lt;b&gt;&lt;font style=&quot;font-size: 14px;&quot;&gt;许多大中企业分布在城市的中心&lt;/font&gt;&lt;/b&gt;" style="rounded=0;whiteSpace=wrap;html=1;" vertex="1" parent="1">
          <mxGeometry x="300" y="-30" width="150" height="62" as="geometry" />
        </mxCell>
        <mxCell id="1KLsVy8x2Pbju-mjb7nF-16" style="edgeStyle=orthogonalEdgeStyle;rounded=0;orthogonalLoop=1;jettySize=auto;html=1;exitX=0.5;exitY=1;exitDx=0;exitDy=0;entryX=0.5;entryY=0;entryDx=0;entryDy=0;fontSize=14;strokeWidth=1;" edge="1" parent="1" source="1KLsVy8x2Pbju-mjb7nF-4" target="1KLsVy8x2Pbju-mjb7nF-7">
          <mxGeometry relative="1" as="geometry" />
        </mxCell>
        <mxCell id="1KLsVy8x2Pbju-mjb7nF-18" style="edgeStyle=orthogonalEdgeStyle;rounded=0;orthogonalLoop=1;jettySize=auto;html=1;exitX=0.5;exitY=1;exitDx=0;exitDy=0;fontSize=14;strokeWidth=1;" edge="1" parent="1" source="1KLsVy8x2Pbju-mjb7nF-4" target="1KLsVy8x2Pbju-mjb7nF-8">
          <mxGeometry relative="1" as="geometry" />
        </mxCell>
        <mxCell id="1KLsVy8x2Pbju-mjb7nF-4" value="&lt;b&gt;&lt;font style=&quot;font-size: 14px;&quot;&gt;大量的中小型企业分布在在中小城镇&lt;/font&gt;&lt;/b&gt;" style="rounded=0;whiteSpace=wrap;html=1;" vertex="1" parent="1">
          <mxGeometry x="545" y="-30" width="150" height="62" as="geometry" />
        </mxCell>
        <mxCell id="1KLsVy8x2Pbju-mjb7nF-19" style="edgeStyle=orthogonalEdgeStyle;rounded=0;orthogonalLoop=1;jettySize=auto;html=1;exitX=0.5;exitY=1;exitDx=0;exitDy=0;fontSize=14;strokeWidth=1;" edge="1" parent="1" source="1KLsVy8x2Pbju-mjb7nF-5" target="1KLsVy8x2Pbju-mjb7nF-9">
          <mxGeometry relative="1" as="geometry" />
        </mxCell>
        <mxCell id="1KLsVy8x2Pbju-mjb7nF-5" value="&lt;b&gt;&lt;font style=&quot;font-size: 14px;&quot;&gt;几乎无污染&lt;/font&gt;&lt;/b&gt;" style="rounded=0;whiteSpace=wrap;html=1;" vertex="1" parent="1">
          <mxGeometry x="303" y="109" width="73" height="64" as="geometry" />
        </mxCell>
        <mxCell id="1KLsVy8x2Pbju-mjb7nF-20" style="edgeStyle=orthogonalEdgeStyle;rounded=0;orthogonalLoop=1;jettySize=auto;html=1;exitX=0.5;exitY=1;exitDx=0;exitDy=0;fontSize=14;strokeWidth=1;" edge="1" parent="1" source="1KLsVy8x2Pbju-mjb7nF-6">
          <mxGeometry relative="1" as="geometry">
            <mxPoint x="495.5999755859375" y="261.20001220703125" as="targetPoint" />
          </mxGeometry>
        </mxCell>
        <mxCell id="1KLsVy8x2Pbju-mjb7nF-6" value="&lt;b&gt;&lt;font style=&quot;font-size: 14px;&quot;&gt;工厂与城市融合&lt;/font&gt;&lt;/b&gt;" style="rounded=0;whiteSpace=wrap;html=1;" vertex="1" parent="1">
          <mxGeometry x="409" y="109" width="73" height="64" as="geometry" />
        </mxCell>
        <mxCell id="1KLsVy8x2Pbju-mjb7nF-21" style="edgeStyle=orthogonalEdgeStyle;rounded=0;orthogonalLoop=1;jettySize=auto;html=1;exitX=0.5;exitY=1;exitDx=0;exitDy=0;entryX=0.5;entryY=0;entryDx=0;entryDy=0;fontSize=14;strokeWidth=1;" edge="1" parent="1" source="1KLsVy8x2Pbju-mjb7nF-7" target="1KLsVy8x2Pbju-mjb7nF-9">
          <mxGeometry relative="1" as="geometry" />
        </mxCell>
        <mxCell id="1KLsVy8x2Pbju-mjb7nF-7" value="&lt;b&gt;&lt;font style=&quot;font-size: 14px;&quot;&gt;生产--生化微循环&lt;/font&gt;&lt;/b&gt;" style="rounded=0;whiteSpace=wrap;html=1;" vertex="1" parent="1">
          <mxGeometry x="515" y="109" width="73" height="64" as="geometry" />
        </mxCell>
        <mxCell id="1KLsVy8x2Pbju-mjb7nF-22" style="edgeStyle=orthogonalEdgeStyle;rounded=0;orthogonalLoop=1;jettySize=auto;html=1;exitX=0.5;exitY=1;exitDx=0;exitDy=0;fontSize=14;strokeWidth=1;" edge="1" parent="1" source="1KLsVy8x2Pbju-mjb7nF-8">
          <mxGeometry relative="1" as="geometry">
            <mxPoint x="495.5999755859375" y="262" as="targetPoint" />
          </mxGeometry>
        </mxCell>
        <mxCell id="1KLsVy8x2Pbju-mjb7nF-8" value="&lt;b&gt;&lt;font style=&quot;font-size: 14px;&quot;&gt;成为城市景观&lt;/font&gt;&lt;/b&gt;" style="rounded=0;whiteSpace=wrap;html=1;" vertex="1" parent="1">
          <mxGeometry x="622" y="109" width="73" height="64" as="geometry" />
        </mxCell>
        <mxCell id="1KLsVy8x2Pbju-mjb7nF-9" value="&lt;span style=&quot;font-size: 14px;&quot;&gt;&lt;b&gt;节省能源&lt;br&gt;缓解交通&lt;br&gt;安居乐业&lt;br&gt;生活自主&lt;br&gt;生活丰富&lt;br&gt;&lt;/b&gt;&lt;/span&gt;" style="rounded=0;whiteSpace=wrap;html=1;" vertex="1" parent="1">
          <mxGeometry x="433" y="261" width="126" height="98" as="geometry" />
        </mxCell>
        <mxCell id="1KLsVy8x2Pbju-mjb7nF-23" value="" style="shape=flexArrow;endArrow=classic;html=1;rounded=0;fontSize=14;strokeWidth=1;strokeColor=#000000;fillColor=#000000;width=12;endSize=13.34;" edge="1" parent="1">
          <mxGeometry width="50" height="50" relative="1" as="geometry">
            <mxPoint x="130" y="-65" as="sourcePoint" />
            <mxPoint x="710" y="-63" as="targetPoint" />
          </mxGeometry>
        </mxCell>
      </root>
    </mxGraphModel>
  </diagram>
</mxfile>
